<svg width="320" height="240" viewBox="0 0 320 240" fill="none" xmlns="http://www.w3.org/2000/svg">
  <defs>
    <linearGradient id="blogBg" x1="0%" y1="0%" x2="100%" y2="100%">
      <stop offset="0%" style="stop-color:#0a0d28;stop-opacity:1" />
      <stop offset="50%" style="stop-color:#10163b;stop-opacity:1" />
      <stop offset="100%" style="stop-color:#080c1c;stop-opacity:1" />
    </linearGradient>
  </defs>
  <rect width="320" height="240" fill="url(#blogBg)"/>
  <rect x="60" y="20" width="200" height="200" rx="8" fill="#080c1c" stroke="rgba(255,255,255,0.14)" stroke-width="0.8"/>
  <rect x="72" y="36" width="176" height="18" fill="rgba(22,32,52,0.95)" rx="4" stroke="rgba(255,255,255,0.1)" stroke-width="0.8"/>
  <rect x="76" y="40" width="64" height="6" fill="rgba(125,243,255,0.35)" rx="2"/>
  <rect x="72" y="62" width="112" height="10" fill="rgba(255,255,255,0.08)" rx="2"/>
  <rect x="72" y="78" width="136" height="10" fill="rgba(255,255,255,0.06)" rx="2"/>
  <rect x="72" y="94" width="96" height="10" fill="rgba(255,255,255,0.05)" rx="2"/>
  <rect x="72" y="136" width="72" height="28" fill="rgba(59,130,246,0.4)" rx="6" stroke="rgba(255,255,255,0.12)" stroke-width="0.8"/>
  <text x="108" y="154" font-family="system-ui,sans-serif" font-size="11" fill="#cbd5e1" text-anchor="middle" font-weight="600">Article</text>
  <circle cx="244" cy="48" r="14" fill="rgba(139,92,246,0.35)" stroke="rgba(255,255,255,0.14)" stroke-width="0.8"/>
  <line x1="239" y1="48" x2="249" y2="48" stroke="#e2e8f0" stroke-width="1.2"/>
  <line x1="244" y1="43" x2="244" y2="53" stroke="#e2e8f0" stroke-width="1.2"/>
  <circle cx="48" cy="36" r="0.8" fill="#fff" opacity="0.5"/>
  <circle cx="272" cy="44" r="0.8" fill="#fff" opacity="0.5"/>
  <circle cx="28" cy="198" r="0.8" fill="#fff" opacity="0.5"/>
  <circle cx="292" cy="186" r="0.8" fill="#fff" opacity="0.5"/>
</svg>
